<?xml version="1.0" standalone="no"?>
<!DOCTYPE svg PUBLIC "-//W3C//DTD SVG 20010904//EN"
 "http://www.w3.org/TR/2001/REC-SVG-20010904/DTD/svg10.dtd">
<svg version="1.0" xmlns="http://www.w3.org/2000/svg"
 width="625.000000pt" height="625.000000pt" viewBox="0 0 625.000000 625.000000"
 preserveAspectRatio="xMidYMid meet">

<g transform="translate(0.000000,625.000000) scale(0.100000,-0.100000)"
fill="#000000" stroke="none">
<path d="M0 3125 l0 -3125 3125 0 3125 0 0 3125 0 3125 -3125 0 -3125 0 0
-3125z m3380 3089 c653 -76 1253 -360 1725 -816 162 -156 276 -289 384 -448
283 -416 440 -824 517 -1345 25 -167 25 -569 1 -745 -35 -249 -83 -435 -178
-693 -189 -509 -554 -993 -1000 -1327 -429 -321 -908 -510 -1474 -581 -132
-17 -511 -17 -650 0 -573 68 -1094 283 -1537 632 -134 106 -403 377 -499 504
-347 457 -550 955 -613 1505 -20 173 -21 505 -1 670 81 689 376 1302 859 1786
261 261 568 472 896 617 505 222 1035 303 1570 241z"/>
<path d="M2922 3895 c-22 -10 -38 -26 -48 -51 -14 -34 -14 -41 0 -77 19 -49
94 -175 110 -184 6 -4 3 5 -7 20 -39 61 -67 121 -67 148 0 48 40 82 101 89
l52 5 -24 26 c-30 33 -74 42 -117 24z"/>
<path d="M3626 3878 c-21 -18 -142 -208 -274 -429 -15 -24 -15 -29 2 -54 15
-23 20 -25 31 -14 7 8 72 109 144 226 73 117 137 215 143 219 6 4 25 10 42 13
33 7 48 38 24 52 -26 17 -86 10 -112 -13z"/>
<path d="M305 3871 c-11 -5 -29 -19 -40 -31 -19 -21 -20 -38 -23 -519 -1 -273
0 -506 3 -518 3 -13 12 -23 20 -23 12 0 15 70 17 483 2 387 6 487 17 509 26
51 67 58 329 58 260 0 352 -9 413 -41 54 -27 59 -19 12 20 -75 62 -131 71
-447 70 -154 0 -290 -4 -301 -8z"/>
<path d="M1895 3868 c-33 -17 -45 -40 -45 -80 0 -31 4 -38 19 -38 12 0 25 11
33 28 23 48 50 51 481 51 237 1 397 5 397 10 0 5 -7 17 -16 25 -14 14 -66 16
-432 16 -283 -1 -423 -4 -437 -12z"/>
<path d="M4030 3873 c-25 -10 -52 -37 -62 -63 -6 -15 -10 -224 -10 -520 1
-466 2 -495 19 -508 17 -12 18 6 23 476 5 448 6 490 23 515 10 16 29 32 43 37
14 6 134 10 268 10 250 0 328 -9 384 -46 36 -24 36 -10 0 25 -17 17 -57 41
-87 53 -52 20 -76 22 -321 25 -146 1 -272 0 -280 -4z"/>
<path d="M5110 3873 c-92 -30 -91 -24 -88 -588 l3 -480 22 -3 22 -3 3 480 3
481 28 27 27 28 353 5 c334 5 352 6 355 24 2 10 -2 22 -10 27 -14 9 -691 11
-718 2z"/>
<path d="M438 3773 c6 -2 18 -2 25 0 6 3 1 5 -13 5 -14 0 -19 -2 -12 -5z"/>
<path d="M4134 3590 c0 -96 2 -136 3 -87 2 48 2 126 0 175 -1 48 -3 8 -3 -88z"/>
<path d="M3739 3663 c-13 -16 -12 -17 4 -4 16 13 21 21 13 21 -2 0 -10 -8 -17
-17z"/>
<path d="M2220 3548 c0 -51 -3 -226 -6 -388 -7 -305 -1 -380 31 -380 13 0 15
59 15 430 0 423 0 430 -20 430 -19 0 -20 -7 -20 -92z"/>
<path d="M928 3544 c-4 -59 -8 -70 -36 -95 -44 -40 -89 -50 -244 -56 l-138 -6
0 -24 0 -25 173 4 c147 3 178 6 212 23 75 38 104 119 71 199 -23 56 -33 51
-38 -20z"/>
<path d="M4585 3535 c0 -130 -50 -167 -237 -173 l-118 -4 0 -29 0 -29 110 0
c179 0 253 28 286 107 24 56 11 155 -25 187 -15 13 -16 8 -16 -59z"/>
<path d="M2996 3558 c4 -7 53 -83 108 -168 l101 -155 5 -216 c4 -162 8 -220
19 -232 7 -9 17 -14 22 -11 5 3 9 91 9 196 l0 191 -131 203 c-72 112 -133 204
-136 204 -2 0 -1 -6 3 -12z"/>
<path d="M1460 3519 c-115 -48 -172 -193 -120 -306 10 -24 21 -43 23 -43 2 0
4 30 3 68 -1 89 30 154 97 199 70 47 145 53 230 18 33 -14 17 15 -25 42 -34
23 -54 28 -112 30 -39 2 -82 -2 -96 -8z"/>
<path d="M5300 3390 l0 -30 245 0 c219 0 246 2 252 16 14 38 -20 44 -264 44
l-233 0 0 -30z"/>
<path d="M930 3204 c0 -8 27 -30 55 -45 13 -8 10 -1 -9 20 -28 29 -46 39 -46
25z"/>
<path d="M876 2936 c41 -69 78 -126 80 -126 3 0 -3 15 -14 33 -77 130 -126
209 -134 213 -4 3 26 -51 68 -120z"/>
<path d="M5300 2891 l0 -31 275 0 c241 0 276 2 282 16 13 35 -12 39 -287 42
l-270 3 0 -30z"/>
</g>
</svg>
